<svg width="77" height="61" viewBox="0 0 77 61" fill="none" xmlns="http://www.w3.org/2000/svg">
    <path d="M72.1109 0.555693H4.88896C2.18907 0.555693 0 2.74463 0 5.44452V55.5557C0 58.2555 2.18907 60.4444 4.88896 60.4444H72.1109C74.8109 60.4444 77 58.2555 77 55.5556V5.44452C77 2.74463 74.8111 0.555693 72.1109 0.555693ZM72.1109 5.44452V41.0001L62.4761 32.2405C61.028 30.9241 58.801 30.9767 57.4175 32.3615L47.6664 42.1111L28.4399 19.1456C26.9866 17.41 24.3246 17.3929 22.8494 19.1077L4.88896 39.9809V5.44452H72.1109ZM51.3334 18.2778C51.3334 14.5647 54.3422 11.5556 58.0554 11.5556C61.7686 11.5556 64.7776 14.5647 64.7776 18.2778C64.7776 21.991 61.7688 25 58.0554 25C54.3424 25.0001 51.3334 21.991 51.3334 18.2778Z" fill="#A0A0A0"/>
</svg>